<svg width="208" height="208" viewBox="0 0 208 208" fill="none" xmlns="http://www.w3.org/2000/svg">
<g filter="url(#filter0_d_26_911)">
<path d="M4 32C4 20.799 4 15.1984 6.17987 10.9202C8.09734 7.15695 11.1569 4.09734 14.9202 2.17987C19.1984 0 24.799 0 36 0H172C183.201 0 188.802 0 193.08 2.17987C196.843 4.09734 199.903 7.15695 201.82 10.9202C204 15.1984 204 20.7989 204 32V168C204 179.201 204 184.802 201.82 189.08C199.903 192.843 196.843 195.903 193.08 197.82C188.802 200 183.201 200 172 200H36C24.799 200 19.1984 200 14.9202 197.82C11.1569 195.903 8.09734 192.843 6.17987 189.08C4 184.802 4 179.201 4 168V32Z" fill="#AFF4C6"/>
<path d="M36 0.5H172C177.609 0.5 181.785 0.500389 185.095 0.770823C188.399 1.04078 190.796 1.57734 192.853 2.62537C196.522 4.4949 199.505 7.47802 201.375 11.1472C202.423 13.2041 202.959 15.6006 203.229 18.9048C203.5 22.2147 203.5 26.3912 203.5 32V168C203.5 173.609 203.5 177.785 203.229 181.095C202.959 184.399 202.423 186.796 201.375 188.853C199.505 192.522 196.522 195.505 192.853 197.375C190.796 198.423 188.399 198.959 185.095 199.229C181.785 199.5 177.609 199.5 172 199.5H36C30.3912 199.5 26.2147 199.5 22.9048 199.229C19.6006 198.959 17.2041 198.423 15.1472 197.375C11.478 195.505 8.4949 192.522 6.62537 188.853C5.57734 186.796 5.04078 184.399 4.77082 181.095C4.50039 177.785 4.5 173.609 4.5 168V32C4.5 26.3912 4.50039 22.2147 4.77082 18.9048C5.04078 15.6006 5.57734 13.2041 6.62537 11.1472C8.4949 7.47802 11.478 4.4949 15.1472 2.62537C17.2041 1.57734 19.6006 1.04078 22.9048 0.770823C26.2147 0.500389 30.3912 0.5 36 0.5Z" stroke="black"/>
</g>
<path d="M154 100C154 101.591 153.368 103.117 152.243 104.243C151.117 105.368 149.591 106 148 106H110V144C110 145.591 109.368 147.117 108.243 148.243C107.117 149.368 105.591 150 104 150C102.409 150 100.883 149.368 99.7574 148.243C98.6321 147.117 98 145.591 98 144V106H60C58.4087 106 56.8826 105.368 55.7574 104.243C54.6321 103.117 54 101.591 54 100C54 98.4087 54.6321 96.8826 55.7574 95.7574C56.8826 94.6321 58.4087 94 60 94H98V56C98 54.4087 98.6321 52.8826 99.7574 51.7574C100.883 50.6321 102.409 50 104 50C105.591 50 107.117 50.6321 108.243 51.7574C109.368 52.8826 110 54.4087 110 56V94H148C149.591 94 151.117 94.6321 152.243 95.7574C153.368 96.8826 154 98.4087 154 100Z" fill="black"/>
<defs>
<filter id="filter0_d_26_911" x="0" y="0" width="208" height="208" filterUnits="userSpaceOnUse" color-interpolation-filters="sRGB">
<feFlood flood-opacity="0" result="BackgroundImageFix"/>
<feColorMatrix in="SourceAlpha" type="matrix" values="0 0 0 0 0 0 0 0 0 0 0 0 0 0 0 0 0 0 127 0" result="hardAlpha"/>
<feOffset dy="4"/>
<feGaussianBlur stdDeviation="2"/>
<feComposite in2="hardAlpha" operator="out"/>
<feColorMatrix type="matrix" values="0 0 0 0 0 0 0 0 0 0 0 0 0 0 0 0 0 0 0.25 0"/>
<feBlend mode="normal" in2="BackgroundImageFix" result="effect1_dropShadow_26_911"/>
<feBlend mode="normal" in="SourceGraphic" in2="effect1_dropShadow_26_911" result="shape"/>
</filter>
</defs>
</svg>
