<svg width="208" height="208" viewBox="0 0 208 208" fill="none" xmlns="http://www.w3.org/2000/svg">
<g filter="url(#filter0_d_26_908)">
<path d="M4 32C4 20.799 4 15.1984 6.17987 10.9202C8.09734 7.15695 11.1569 4.09734 14.9202 2.17987C19.1984 0 24.7989 0 36 0H172C183.201 0 188.802 0 193.08 2.17987C196.843 4.09734 199.903 7.15695 201.82 10.9202C204 15.1984 204 20.7989 204 32V168C204 179.201 204 184.802 201.82 189.08C199.903 192.843 196.843 195.903 193.08 197.82C188.802 200 183.201 200 172 200H36C24.799 200 19.1984 200 14.9202 197.82C11.1569 195.903 8.09734 192.843 6.17987 189.08C4 184.802 4 179.201 4 168V32Z" fill="#FFAFA3"/>
<path d="M36 0.5H172C177.609 0.5 181.785 0.500389 185.095 0.770823C188.399 1.04078 190.796 1.57734 192.853 2.62537C196.522 4.4949 199.505 7.47802 201.375 11.1472C202.423 13.2041 202.959 15.6006 203.229 18.9048C203.5 22.2147 203.5 26.3912 203.5 32V168C203.5 173.609 203.5 177.785 203.229 181.095C202.959 184.399 202.423 186.796 201.375 188.853C199.505 192.522 196.522 195.505 192.853 197.375C190.796 198.423 188.399 198.959 185.095 199.229C181.785 199.5 177.609 199.5 172 199.5H36C30.3912 199.5 26.2147 199.5 22.9048 199.229C19.6006 198.959 17.2041 198.423 15.1472 197.375C11.478 195.505 8.4949 192.522 6.62537 188.853C5.57734 186.796 5.04078 184.399 4.77082 181.095C4.50039 177.785 4.5 173.609 4.5 168V32C4.5 26.3912 4.50039 22.2147 4.77082 18.9048C5.04078 15.6006 5.57734 13.2041 6.62537 11.1472C8.4949 7.47802 11.478 4.4949 15.1472 2.62537C17.2041 1.57734 19.6006 1.04078 22.9048 0.770823C26.2147 0.500389 30.3912 0.5 36 0.5Z" stroke="black"/>
</g>
<path d="M64 50C58.4933 50 54 54.4933 54 60C54.0049 62.1341 54.6902 64.211 55.9562 65.9291C57.2222 67.6471 59.0031 68.9167 61.04 69.5533L68.5167 131.647C67.1309 132.556 65.9927 133.795 65.2043 135.253C64.416 136.711 64.0021 138.342 64 140C64 145.507 68.4933 150 74 150H134C139.507 150 144 145.507 144 140C144 136.433 142.12 133.3 139.3 131.527L146.753 69.6133C148.839 69.0114 150.673 67.7488 151.98 66.0153C153.287 64.2817 153.996 62.1709 154 60C154 54.4933 149.507 50 144 50H64ZM60.6667 60C60.6667 58.1733 62.1733 56.6667 64 56.6667H144C145.827 56.6667 147.333 58.1733 147.333 60C147.333 61.8267 145.827 63.3333 144 63.3333H64C62.1733 63.3333 60.6667 61.8267 60.6667 60ZM137.24 70L135.12 87.5833L134.013 89.69L127.813 77.9067L131.967 70H137.24ZM124.383 70L124.017 70.7L123.65 70H124.383ZM116.06 70L120.22 77.9167L114.18 89.4L107.833 77.3367L111.693 70H116.06ZM104.08 70L104.027 70.1L103.973 70H104.08ZM96.36 70L100.22 77.3367L93.8733 89.4033L87.83 77.91L91.99 70H96.3567H96.36ZM84.3833 70L84.0267 70.68L83.6667 70H84.3833ZM76.0533 70L80.22 77.9233L74.03 89.7067L72.6067 87L70.56 70H76.0533ZM87.6133 130H80.13L83.8733 122.89L87.6133 130ZM107.613 130H100.433L104.023 123.173L107.613 130ZM127.92 130H120.433L124.173 122.887L127.92 130ZM127.983 115.647L132.86 106.37L131.04 121.46L127.983 115.647ZM74.8667 105.773L80.06 115.65L76.8033 121.847L74.8667 105.773ZM124.01 85.1333L130.21 96.9267L124.17 108.407L117.973 96.62L124.01 85.1333ZM114.167 103.863L120.367 115.647L114.02 127.713L107.823 115.93L114.167 103.863ZM94.0233 127.717L87.6767 115.65L93.87 103.877L100.217 115.943L94.0233 127.717ZM104.023 108.703L97.6767 96.6367L104.023 84.5767L110.37 96.6433L104.023 108.703ZM83.87 108.413L77.8233 96.9233L84.02 85.1467L90.0633 96.64L83.87 108.413ZM74 136.667H134C135.827 136.667 137.333 138.173 137.333 140C137.333 141.827 135.827 143.333 134 143.333H74C72.1733 143.333 70.6667 141.827 70.6667 140C70.6667 138.173 72.1733 136.667 74 136.667Z" fill="black"/>
<defs>
<filter id="filter0_d_26_908" x="0" y="0" width="208" height="208" filterUnits="userSpaceOnUse" color-interpolation-filters="sRGB">
<feFlood flood-opacity="0" result="BackgroundImageFix"/>
<feColorMatrix in="SourceAlpha" type="matrix" values="0 0 0 0 0 0 0 0 0 0 0 0 0 0 0 0 0 0 127 0" result="hardAlpha"/>
<feOffset dy="4"/>
<feGaussianBlur stdDeviation="2"/>
<feComposite in2="hardAlpha" operator="out"/>
<feColorMatrix type="matrix" values="0 0 0 0 0 0 0 0 0 0 0 0 0 0 0 0 0 0 0.25 0"/>
<feBlend mode="normal" in2="BackgroundImageFix" result="effect1_dropShadow_26_908"/>
<feBlend mode="normal" in="SourceGraphic" in2="effect1_dropShadow_26_908" result="shape"/>
</filter>
</defs>
</svg>
