<svg width="208" height="208" viewBox="0 0 208 208" fill="none" xmlns="http://www.w3.org/2000/svg">
<g filter="url(#filter0_d_26_902)">
<path d="M4 32C4 20.799 4 15.1984 6.17987 10.9202C8.09734 7.15695 11.1569 4.09734 14.9202 2.17987C19.1984 0 24.7989 0 36 0H172C183.201 0 188.802 0 193.08 2.17987C196.843 4.09734 199.903 7.15695 201.82 10.9202C204 15.1984 204 20.7989 204 32V168C204 179.201 204 184.802 201.82 189.08C199.903 192.843 196.843 195.903 193.08 197.82C188.802 200 183.201 200 172 200H36C24.799 200 19.1984 200 14.9202 197.82C11.1569 195.903 8.09734 192.843 6.17987 189.08C4 184.802 4 179.201 4 168V32Z" fill="#FFD966"/>
<path d="M36 0.5H172C177.609 0.5 181.785 0.500389 185.095 0.770823C188.399 1.04078 190.796 1.57734 192.853 2.62537C196.522 4.4949 199.505 7.47802 201.375 11.1472C202.423 13.2041 202.959 15.6006 203.229 18.9048C203.5 22.2147 203.5 26.3912 203.5 32V168C203.5 173.609 203.5 177.785 203.229 181.095C202.959 184.399 202.423 186.796 201.375 188.853C199.505 192.522 196.522 195.505 192.853 197.375C190.796 198.423 188.399 198.959 185.095 199.229C181.785 199.5 177.609 199.5 172 199.5H36C30.3912 199.5 26.2147 199.5 22.9048 199.229C19.6006 198.959 17.2041 198.423 15.1472 197.375C11.478 195.505 8.4949 192.522 6.62537 188.853C5.57734 186.796 5.04078 184.399 4.77082 181.095C4.50039 177.785 4.5 173.609 4.5 168V32C4.5 26.3912 4.50039 22.2147 4.77082 18.9048C5.04078 15.6006 5.57734 13.2041 6.62537 11.1472C8.4949 7.47802 11.478 4.4949 15.1472 2.62537C17.2041 1.57734 19.6006 1.04078 22.9048 0.770823C26.2147 0.500389 30.3912 0.5 36 0.5Z" stroke="black"/>
</g>
<path d="M104 101.258C102.426 101.258 101.107 100.789 100.044 99.8516C98.9778 98.9173 98.4444 97.7585 98.4444 96.375C98.4444 94.9915 98.9778 93.8311 100.044 92.8936C101.107 91.9593 102.426 91.4922 104 91.4922C105.574 91.4922 106.894 91.9593 107.961 92.8936C109.024 93.8311 109.556 94.9915 109.556 96.375C109.556 97.7585 109.024 98.9173 107.961 99.8516C106.894 100.789 105.574 101.258 104 101.258ZM81.7778 101.258C80.2037 101.258 78.8833 100.789 77.8167 99.8516C76.7537 98.9173 76.2222 97.7585 76.2222 96.375C76.2222 94.9915 76.7537 93.8311 77.8167 92.8936C78.8833 91.9593 80.2037 91.4922 81.7778 91.4922C83.3519 91.4922 84.6722 91.9593 85.7389 92.8936C86.8019 93.8311 87.3333 94.9915 87.3333 96.375C87.3333 97.7585 86.8019 98.9173 85.7389 99.8516C84.6722 100.789 83.3519 101.258 81.7778 101.258ZM126.222 101.258C124.648 101.258 123.33 100.789 122.267 99.8516C121.2 98.9173 120.667 97.7585 120.667 96.375C120.667 94.9915 121.2 93.8311 122.267 92.8936C123.33 91.9593 124.648 91.4922 126.222 91.4922C127.796 91.4922 129.115 91.9593 130.178 92.8936C131.244 93.8311 131.778 94.9915 131.778 96.375C131.778 97.7585 131.244 98.9173 130.178 99.8516C129.115 100.789 127.796 101.258 126.222 101.258ZM104 120.789C102.426 120.789 101.107 120.32 100.044 119.383C98.9778 118.449 98.4444 117.29 98.4444 115.906C98.4444 114.523 98.9778 113.364 100.044 112.43C101.107 111.492 102.426 111.023 104 111.023C105.574 111.023 106.894 111.492 107.961 112.43C109.024 113.364 109.556 114.523 109.556 115.906C109.556 117.29 109.024 118.449 107.961 119.383C106.894 120.32 105.574 120.789 104 120.789ZM81.7778 120.789C80.2037 120.789 78.8833 120.32 77.8167 119.383C76.7537 118.449 76.2222 117.29 76.2222 115.906C76.2222 114.523 76.7537 113.364 77.8167 112.43C78.8833 111.492 80.2037 111.023 81.7778 111.023C83.3519 111.023 84.6722 111.492 85.7389 112.43C86.8019 113.364 87.3333 114.523 87.3333 115.906C87.3333 117.29 86.8019 118.449 85.7389 119.383C84.6722 120.32 83.3519 120.789 81.7778 120.789ZM126.222 120.789C124.648 120.789 123.33 120.32 122.267 119.383C121.2 118.449 120.667 117.29 120.667 115.906C120.667 114.523 121.2 113.364 122.267 112.43C123.33 111.492 124.648 111.023 126.222 111.023C127.796 111.023 129.115 111.492 130.178 112.43C131.244 113.364 131.778 114.523 131.778 115.906C131.778 117.29 131.244 118.449 130.178 119.383C129.115 120.32 127.796 120.789 126.222 120.789ZM65.1111 140.32C62.0556 140.32 59.4389 139.365 57.2611 137.454C55.087 135.54 54 133.24 54 130.555V62.1953C54 59.5098 55.087 57.2116 57.2611 55.3008C59.4389 53.3867 62.0556 52.4297 65.1111 52.4297H70.6667V42.6641H81.7778V52.4297H126.222V42.6641H137.333V52.4297H142.889C145.944 52.4297 148.561 53.3867 150.739 55.3008C152.913 57.2116 154 59.5098 154 62.1953V130.555C154 133.24 152.913 135.54 150.739 137.454C148.561 139.365 145.944 140.32 142.889 140.32H65.1111ZM65.1111 130.555H142.889V81.7266H65.1111V130.555Z" fill="black"/>
<defs>
<filter id="filter0_d_26_902" x="0" y="0" width="208" height="208" filterUnits="userSpaceOnUse" color-interpolation-filters="sRGB">
<feFlood flood-opacity="0" result="BackgroundImageFix"/>
<feColorMatrix in="SourceAlpha" type="matrix" values="0 0 0 0 0 0 0 0 0 0 0 0 0 0 0 0 0 0 127 0" result="hardAlpha"/>
<feOffset dy="4"/>
<feGaussianBlur stdDeviation="2"/>
<feComposite in2="hardAlpha" operator="out"/>
<feColorMatrix type="matrix" values="0 0 0 0 0 0 0 0 0 0 0 0 0 0 0 0 0 0 0.25 0"/>
<feBlend mode="normal" in2="BackgroundImageFix" result="effect1_dropShadow_26_902"/>
<feBlend mode="normal" in="SourceGraphic" in2="effect1_dropShadow_26_902" result="shape"/>
</filter>
</defs>
</svg>
