<svg width="210" height="209" viewBox="0 0 210 209" fill="none" xmlns="http://www.w3.org/2000/svg">
<g filter="url(#filter0_d_26_905)">
<path d="M5 32C5 20.799 5 15.1984 7.17987 10.9202C9.09734 7.15695 12.1569 4.09734 15.9202 2.17987C20.1984 0 25.7989 0 37 0H173C184.201 0 189.802 0 194.08 2.17987C197.843 4.09734 200.903 7.15695 202.82 10.9202C205 15.1984 205 20.7989 205 32V168C205 179.201 205 184.802 202.82 189.08C200.903 192.843 197.843 195.903 194.08 197.82C189.802 200 184.201 200 173 200H37C25.799 200 20.1984 200 15.9202 197.82C12.1569 195.903 9.09734 192.843 7.17987 189.08C5 184.802 5 179.201 5 168V32Z" fill="#D67DFF"/>
<path d="M37 0.502732H173C178.609 0.502732 182.785 0.503123 186.095 0.773546C189.399 1.04349 191.795 1.58 193.852 2.62781C197.52 4.49708 200.503 7.47978 202.372 11.1484C203.42 13.2049 203.957 15.601 204.226 18.905C204.497 22.2148 204.497 26.3912 204.497 32V168C204.497 173.609 204.497 177.785 204.226 181.095C203.957 184.399 203.42 186.795 202.372 188.852C200.503 192.52 197.52 195.503 193.852 197.372C191.795 198.42 189.399 198.957 186.095 199.226C182.785 199.497 178.609 199.497 173 199.497H37C31.3912 199.497 27.2148 199.497 23.905 199.226C20.601 198.957 18.2049 198.42 16.1484 197.372C12.4798 195.503 9.49708 192.52 7.62781 188.852C6.58 186.795 6.04349 184.399 5.77355 181.095C5.50312 177.785 5.50273 173.609 5.50273 168V32C5.50273 26.3912 5.50312 22.2148 5.77355 18.905C6.04349 15.601 6.58 13.2049 7.62781 11.1484C9.49708 7.47978 12.4798 4.49708 16.1484 2.62781C18.2049 1.58 20.601 1.04349 23.905 0.773546C27.2148 0.503123 31.3912 0.502732 37 0.502732Z" stroke="black" stroke-width="1.00546"/>
</g>
<path d="M150 140H145V65C145 63.6739 144.473 62.4021 143.536 61.4645C142.598 60.5268 141.326 60 140 60C138.674 60 137.402 60.5268 136.464 61.4645C135.527 62.4021 135 63.6739 135 65V140H125V105C125 103.674 124.473 102.402 123.536 101.464C122.598 100.527 121.326 100 120 100C118.674 100 117.402 100.527 116.464 101.464C115.527 102.402 115 103.674 115 105V140H105V85C105 83.6739 104.473 82.4021 103.536 81.4645C102.598 80.5268 101.326 80 100 80C98.6739 80 97.4021 80.5268 96.4645 81.4645C95.5268 82.4021 95 83.6739 95 85V140H85V125C85 123.674 84.4732 122.402 83.5355 121.464C82.5979 120.527 81.3261 120 80 120C78.6739 120 77.4021 120.527 76.4645 121.464C75.5268 122.402 75 123.674 75 125V140H65V55C65 53.6739 64.4732 52.4021 63.5355 51.4645C62.5979 50.5268 61.3261 50 60 50C58.6739 50 57.4021 50.5268 56.4645 51.4645C55.5268 52.4021 55 53.6739 55 55V145C55 146.326 55.5268 147.598 56.4645 148.536C57.4021 149.473 58.6739 150 60 150H150C151.326 150 152.598 149.473 153.536 148.536C154.473 147.598 155 146.326 155 145C155 143.674 154.473 142.402 153.536 141.464C152.598 140.527 151.326 140 150 140Z" fill="black"/>
<defs>
<filter id="filter0_d_26_905" x="0.978142" y="0" width="208.044" height="208.044" filterUnits="userSpaceOnUse" color-interpolation-filters="sRGB">
<feFlood flood-opacity="0" result="BackgroundImageFix"/>
<feColorMatrix in="SourceAlpha" type="matrix" values="0 0 0 0 0 0 0 0 0 0 0 0 0 0 0 0 0 0 127 0" result="hardAlpha"/>
<feOffset dy="4.02186"/>
<feGaussianBlur stdDeviation="2.01093"/>
<feComposite in2="hardAlpha" operator="out"/>
<feColorMatrix type="matrix" values="0 0 0 0 0 0 0 0 0 0 0 0 0 0 0 0 0 0 0.25 0"/>
<feBlend mode="normal" in2="BackgroundImageFix" result="effect1_dropShadow_26_905"/>
<feBlend mode="normal" in="SourceGraphic" in2="effect1_dropShadow_26_905" result="shape"/>
</filter>
</defs>
</svg>
