<svg width="55" height="55" viewBox="0 0 55 55" fill="none" xmlns="http://www.w3.org/2000/svg">
<path d="M48.8889 0H6.11111C4.49034 0 2.93596 0.643847 1.7899 1.7899C0.643847 2.93596 0 4.49034 0 6.11111V48.8889C0 50.5097 0.643847 52.064 1.7899 53.2101C2.93596 54.3562 4.49034 55 6.11111 55H48.8889C50.5097 55 52.064 54.3562 53.2101 53.2101C54.3562 52.064 55 50.5097 55 48.8889V6.11111C55 4.49034 54.3562 2.93596 53.2101 1.7899C52.064 0.643847 50.5097 0 48.8889 0ZM38.9583 27.5C38.9583 28.1722 38.8667 28.7833 38.775 29.425L41.3417 31.6556C41.8917 32.1444 42.0139 32.9389 41.6472 33.5806L39.8444 36.6972C39.4778 37.3389 38.7139 37.6139 38.0417 37.3694L34.8028 36.2694C33.825 37.0944 32.725 37.7361 31.5028 38.1944L30.8306 41.525C30.6778 42.2278 30.0667 42.7472 29.3333 42.7472H25.7278C24.9944 42.7472 24.3833 42.2278 24.2306 41.525L23.5583 38.1944C22.3361 37.7361 21.2361 37.0944 20.2583 36.2694L17.0194 37.3694C16.6876 37.4834 16.3265 37.4787 15.9977 37.3561C15.6689 37.2335 15.3929 37.0006 15.2167 36.6972L13.4139 33.5806C13.2344 33.2738 13.1668 32.9144 13.2225 32.5634C13.2782 32.2124 13.4538 31.8916 13.7194 31.6556L16.2861 29.425C16.1333 28.7833 16.0417 28.1722 16.0417 27.5C16.0417 26.8278 16.1333 26.2167 16.225 25.575L13.6583 23.3444C13.3927 23.1084 13.2171 22.7875 13.1614 22.4366C13.1057 22.0856 13.1733 21.7262 13.3528 21.4194L15.1556 18.3028C15.5222 17.6611 16.2861 17.3861 16.9583 17.6306L20.1972 18.7306C21.175 17.9056 22.275 17.2639 23.4972 16.8056L24.1694 13.475C24.3528 12.7417 24.9639 12.2222 25.6972 12.2222H29.3028C30.0361 12.2222 30.6472 12.7417 30.8 13.4444L31.4722 16.775C32.6944 17.2333 33.7944 17.875 34.7722 18.7L38.0111 17.6C38.7139 17.3556 39.4472 17.6611 39.8139 18.2722L41.6167 21.3889C41.9833 22.0306 41.8611 22.825 41.3111 23.3139L38.7444 25.5444C38.8667 26.2167 38.9583 26.8278 38.9583 27.5Z" fill="black"/>
<path d="M27.5 33.6111C30.875 33.6111 33.6111 30.8751 33.6111 27.5C33.6111 24.1249 30.875 21.3889 27.5 21.3889C24.1249 21.3889 21.3889 24.1249 21.3889 27.5C21.3889 30.8751 24.1249 33.6111 27.5 33.6111Z" fill="black"/>
</svg>
